<?xml version="1.0" encoding="utf-8"?>
<!-- Generator: Adobe Illustrator 23.0.2, SVG Export Plug-In . SVG Version: 6.00 Build 0)  -->
<svg version="1.1" xmlns="http://www.w3.org/2000/svg" xmlns:xlink="http://www.w3.org/1999/xlink" x="0px" y="0px"
	 viewBox="0 0 36.8 32.9" style="enable-background:new 0 0 36.8 32.9;" xml:space="preserve">
<style type="text/css">
	.st0{fill:#FFFFFF;}
	.st1{fill:none;stroke:#000000;stroke-width:1.0391;stroke-linecap:round;stroke-linejoin:round;}
	.st2{fill:none;stroke:#000000;stroke-width:0.2078;stroke-linecap:round;stroke-linejoin:round;}
</style>
<g id="Layer_2">
	<ellipse class="st0" cx="13.4" cy="26.1" rx="8.3" ry="5.3"/>
</g>
<g id="Layer_3">
</g>
<g id="Layer_1">
	<title>xris_icon</title>
	<g>
		<g id="Layer4_0_FILL_2_">
			<path class="st0" d="M24.8,20.8c0.5-1.6,0.1-3.3-1.2-4.4c-0.6-0.5-1.2-0.6-1.8-0.5c-0.3,0.1-0.6,0.2-0.8,0.5
				c-0.3-0.4-0.6-0.7-0.9-1.1c-3.8-3.8-9.9-3.8-13.7,0c0,0,0,0,0,0c-0.1,0.1-0.4,0.1-1,0.1S4.5,16,4.4,17c-0.1,1-0.2,1.8-0.3,2.3
				h0.7V22h-3v-1.1C1.5,21,1.3,21.3,1,21.6c-0.4,0.6-0.6,1.3-0.6,2c0,0.7,0.2,1.4,0.6,2c0.4,0.6,0.9,0.9,1.5,0.9
				c0.6,0,1.1-0.3,1.7-1c-0.5,0.7-1.1,1-1.7,1c-0.6,0-1.1-0.3-1.5-0.9c-0.4-0.6-0.6-1.3-0.6-2v0.1c0,0.7,0.2,1.5,0.6,2.1
				c0.4,0.6,0.9,0.9,1.5,0.9c0.6,0,1.1-0.3,1.7-1c0.5,1.3,1.2,2.5,2.2,3.5c3.8,3.8,10,3.8,13.7,0c1.6-1.6,2.6-3.7,2.8-5.9
				c0-0.3,0-0.6,0-0.9v0c0.2,0,0.4,0,0.6-0.1C24.1,22,24.6,21.5,24.8,20.8 M19,22.2c0.1-0.1,0.3-0.2,0.4-0.2c0.2,0,0.3,0.1,0.4,0.2
				c0.1,0.1,0.1,0.6,0,1.6c-0.1,1.1-0.3,2-0.6,2.6c-0.7,1.5-2.1,2.5-4,3.1c-1.9,0.5-3.7,0.3-5.3-0.7c-0.9-0.5-1.7-1.2-2.3-2.1
				c-0.3-0.7-0.5-1-0.5-1c-0.1-0.2-0.2-0.5-0.1-0.8c0.1-0.1,0.1-0.2,0.2-0.3c0.1-0.1,0.3-0.2,0.4-0.2c0.2,0,0.3,0.1,0.4,0.2
				c1.7,0.9,4,0.8,6.9-0.3C16.5,23.7,17.8,23.1,19,22.2L19,22.2z"/>
		</g>
		<path id="Layer4_0_1_STROKES_2_" class="st1" d="M4.1,19.3C4.2,18.7,4.3,18,4.4,17c0.1-1,0.4-1.5,1-1.5c0.6,0,0.9,0,1-0.1
			c3.8-3.8,9.9-3.8,13.7,0c0,0,0,0,0,0c0.3,0.3,0.7,0.7,1,1.1c0.2-0.2,0.5-0.4,0.8-0.5c0.6-0.2,1.2,0,1.8,0.5
			c1.2,1.1,1.7,2.8,1.2,4.4c-0.3,0.7-0.7,1.2-1.3,1.3c-0.2,0.1-0.4,0.1-0.6,0.1v0c0,0.3,0,0.6,0,0.9c-0.5,5.3-5.3,9.3-10.6,8.7
			c-2.2-0.2-4.3-1.2-5.9-2.8c-1-1-1.7-2.2-2.2-3.5 M0.4,23.5v-0.1c0-0.7,0.2-1.5,0.6-2.1c0.2-0.3,0.5-0.5,0.8-0.7 M0.4,23.5
			c0,0.7,0.2,1.4,0.6,2c0.4,0.6,0.9,0.9,1.5,0.9c0.6,0,1.1-0.3,1.7-1 M19.9,22.3c0.1,0.1,0.1,0.6,0,1.6c-0.1,0.9-0.3,1.8-0.6,2.6
			c-0.7,1.5-2.1,2.5-4,3.1c-1.9,0.5-3.7,0.3-5.3-0.7c-0.9-0.5-1.7-1.2-2.3-2.1c-0.3-0.7-0.5-1-0.5-1c-0.1-0.2-0.2-0.5-0.1-0.8
			c0.1-0.1,0.1-0.2,0.2-0.3c0.1-0.1,0.3-0.2,0.4-0.2c0.2,0,0.3,0.1,0.4,0.2c1.7,0.9,4,0.8,6.9-0.3c1.4-0.5,2.7-1.2,4-2
			c0.1-0.1,0.3-0.2,0.4-0.2C19.6,22.1,19.8,22.1,19.9,22.3L19.9,22.3z"/>
		<g id="Layer3_0_FILL_2_">
			<path d="M20.7,17.1c0.2,0.4,0.3,0.7,0.5,1.1l0.5,1.4l0.1-3.3C21.3,16.4,21,16.7,20.7,17.1 M20.7,17.1c0.2-0.4,0.6-0.6,1-0.8
				l0.1,0l-0.3-6l-5,2.4C18.3,13.7,19.8,15.2,20.7,17.1L20.7,17.1z"/>
		</g>
		<path id="Layer3_0_1_STROKES_2_" class="st2" d="M20.7,17.1c0.2,0.4,0.3,0.7,0.5,1.1l0.5,1.4l0.1-3.3C21.3,16.4,21,16.7,20.7,17.1
			c-0.9-1.9-2.4-3.4-4.2-4.4l5-2.4l0.3,6l-0.1,0"/>
		<g id="Layer2_0_FILL_2_">
			<path d="M35.6,10.1c-1.4-2.1-3.8-3.2-6.9-3.2c-1.8,0-3.9,0.3-6.2,1c2.3-0.7,4.4-1,6.2-1l7.5-2.3C31.9,2.4,26,3.2,18.4,7.2
				l8.6-6.8C20.2-0.4,13.4,4.1,6.7,13.8L6.3,6.9c-1.9,1.8-2.8,4.7-2.7,8.9l-2.3-5.7c-1.2,2.6-0.8,5.3,1,8.1L1,19.1l1.5,1.8
				c1.6-0.1,2.3,0.8,2.3,2.7l0.4,0.3c0-0.3,0-0.5-0.1-0.8c-0.1-1.6,0-3.2,0.4-4.8l-1-1.6l1.8,0.7C15,12.9,24.8,10.5,35.6,10.1z"/>
		</g>
		<path id="Layer2_0_1_STROKES_2_" class="st2" d="M28.6,6.9c3.2,0,5.5,1.1,6.9,3.2C24.8,10.5,15,12.9,6.2,17.4l-1.8-0.7l1,1.5
			c-0.3,1.6-0.5,3.2-0.4,4.8c0,0.3,0,0.5,0.1,0.8l-0.4-0.3c0.1-1.9-0.7-2.8-2.3-2.7L1,19.1l1.3-0.8c-1.8-2.8-2.1-5.5-1-8.1l2.3,5.7
			c-0.1-4.2,0.8-7.2,2.7-8.9l0.4,6.8C13.4,4.1,20.2-0.4,27.1,0.4l-8.6,6.8c7.5-4,13.4-4.8,17.7-2.6L28.6,6.9c-1.8,0-3.9,0.3-6.2,1"
			/>
		<path id="Layer2_0_2_STROKES_2_" class="st1" d="M7,21.7c-0.2-1-0.3-1.9,0-2.5c0.3-1,0.9-1.5,1.6-1.7c0.7-0.2,1.5-0.1,2.1,0.2
			c0.7,0.4,1,1,1.1,2c0.1,1,0,1.6-0.1,2 M14.6,21.1c-0.4-0.6-0.7-1.2-0.8-1.9c-0.2-0.6-0.1-1.2,0-1.8c0.2-0.4,0.4-0.8,0.8-1.1
			c0.3-0.2,0.7-0.4,1.1-0.5c0.8-0.2,1.6,0,2.1,0.7c0.6,0.8,0.8,1.8,0.7,3.2"/>
	</g>
</g>
</svg>
